<svg width="24" height="24" viewBox="0 0 24 24" fill="none" xmlns="http://www.w3.org/2000/svg">
<g clip-path="url(#clip0_1_51)">
<path d="M15 3C15.5523 3 16 3.44772 16 4H18C19.1046 4 20 4.89543 20 6V8C20 8.55228 19.5523 9 19 9H18.86L18.1245 19.133C18.0544 20.1836 17.1818 21 16.1289 21H7.87111C6.81818 21 5.94558 20.1836 5.87554 19.133L5.139 9H5C4.44772 9 4 8.55228 4 8V6C4 4.89543 4.89543 4 6 4H8C8 3.44772 8.44772 3 9 3H15ZM16.8622 9H7.13777L7.87111 19H16.1289L16.8622 9ZM18 6H6V7H18V6Z" fill="#52555A"/>
</g>
<defs>
<clipPath id="clip0_1_51">
<rect width="24" height="24" fill="white"/>
</clipPath>
</defs>
</svg>
