<svg width="24" height="24" viewBox="0 0 24 24" fill="none" xmlns="http://www.w3.org/2000/svg">
<path d="M8.21593 17.0167L16.1615 9.07107L14.7473 7.65686L6.80449 15.5997L6.26642 17.5596L8.21593 17.0167ZM16.8686 2.70711C17.2592 2.31659 17.8923 2.31659 18.2828 2.70711L21.1113 5.53554C21.5018 5.92606 21.5018 6.55923 21.1113 6.94975L9.63015 18.4309C9.3866 18.6744 9.08429 18.8509 8.75249 18.9433L5.10326 19.9596C4.57123 20.1078 4.01981 19.7966 3.87165 19.2645C3.8231 19.0902 3.82276 18.906 3.87067 18.7315L4.87585 15.0702C4.9677 14.7357 5.14497 14.4308 5.39028 14.1855L16.8686 2.70711ZM17.5757 4.82843L16.1615 6.24264L17.5757 7.65686L18.99 6.24264L17.5757 4.82843Z" fill="#52555A"/>
</svg>
