<svg width="24" height="24" viewBox="0 0 24 24" fill="none" xmlns="http://www.w3.org/2000/svg">
<path d="M8.3 5.44333C8.13431 5.44333 8 5.57764 8 5.74333V18.2567C8 18.326 8.02396 18.3931 8.06781 18.4467C8.17273 18.5749 8.36174 18.5938 8.48997 18.4889L16.137 12.2322C16.1525 12.2196 16.1666 12.2054 16.1792 12.19C16.2842 12.0618 16.2653 11.8727 16.137 11.7678L8.48997 5.51114C8.43637 5.46729 8.36925 5.44333 8.3 5.44333ZM9.75645 3.96323L17.4035 10.2199C18.3866 11.0243 18.5315 12.4733 17.7272 13.4565C17.6303 13.5748 17.5219 13.6833 17.4035 13.7801L9.75645 20.0368C8.77332 20.8412 7.32427 20.6963 6.5199 19.7131C6.18369 19.3022 6 18.7876 6 18.2567V5.74333C6 4.47307 7.02975 3.44333 8.3 3.44333C8.83094 3.44333 9.34552 3.62702 9.75645 3.96323Z" fill="#52555A"/>
</svg>
